<mxfile host="app.diagrams.net" modified="2024-01-20T13:53:23.556Z" agent="Mozilla/5.0 (Windows NT 10.0; Win64; x64) AppleWebKit/537.36 (KHTML, like Gecko) Chrome/120.0.0.0 Safari/537.36" etag="2iO5z6DN3eG347d-ZyRt" version="22.1.21" type="github">
  <diagram name="第 1 页" id="n7WDJ8y65uzoVJds5_3G">
    <mxGraphModel dx="1184" dy="707" grid="1" gridSize="10" guides="1" tooltips="1" connect="1" arrows="1" fold="1" page="1" pageScale="1" pageWidth="827" pageHeight="1169" math="0" shadow="0">
      <root>
        <mxCell id="0" />
        <mxCell id="1" parent="0" />
        <mxCell id="nzlMtpgKNGSJa9ZbUIQB-2" value="&lt;p style=&quot;margin:0px;margin-top:4px;text-align:center;&quot;&gt;&lt;i&gt;&amp;lt;&amp;lt;Interface&amp;gt;&amp;gt;&lt;/i&gt;&lt;br&gt;&lt;b&gt;IReference&lt;/b&gt;&lt;/p&gt;&lt;hr size=&quot;1&quot;&gt;&lt;p style=&quot;margin:0px;margin-left:4px;&quot;&gt;+ Clear()&lt;br&gt;&lt;/p&gt;" style="verticalAlign=top;align=left;overflow=fill;fontSize=12;fontFamily=Helvetica;html=1;whiteSpace=wrap;" vertex="1" parent="1">
          <mxGeometry x="180" y="130" width="190" height="70" as="geometry" />
        </mxCell>
        <mxCell id="nzlMtpgKNGSJa9ZbUIQB-11" value="FSM&amp;lt;T&amp;gt;&lt;br&gt;Where T:Class" style="swimlane;fontStyle=1;align=center;verticalAlign=top;childLayout=stackLayout;horizontal=1;startSize=40;horizontalStack=0;resizeParent=1;resizeParentMax=0;resizeLast=0;collapsible=1;marginBottom=0;whiteSpace=wrap;html=1;" vertex="1" parent="1">
          <mxGeometry x="570" y="130" width="230" height="162" as="geometry" />
        </mxCell>
        <mxCell id="nzlMtpgKNGSJa9ZbUIQB-12" value="- m_Datas :Dictionary&amp;lt;Type,FsmState&amp;gt;&lt;br&gt;- m_Statas:Dictionary&amp;lt;string,Variable&amp;gt;" style="text;strokeColor=none;fillColor=none;align=left;verticalAlign=top;spacingLeft=4;spacingRight=4;overflow=hidden;rotatable=0;points=[[0,0.5],[1,0.5]];portConstraint=eastwest;whiteSpace=wrap;html=1;" vertex="1" parent="nzlMtpgKNGSJa9ZbUIQB-11">
          <mxGeometry y="40" width="230" height="44" as="geometry" />
        </mxCell>
        <mxCell id="nzlMtpgKNGSJa9ZbUIQB-13" value="" style="line;strokeWidth=1;fillColor=none;align=left;verticalAlign=middle;spacingTop=-1;spacingLeft=3;spacingRight=3;rotatable=0;labelPosition=right;points=[];portConstraint=eastwest;strokeColor=inherit;" vertex="1" parent="nzlMtpgKNGSJa9ZbUIQB-11">
          <mxGeometry y="84" width="230" height="8" as="geometry" />
        </mxCell>
        <mxCell id="nzlMtpgKNGSJa9ZbUIQB-14" value="+ method(type): type" style="text;strokeColor=none;fillColor=none;align=left;verticalAlign=top;spacingLeft=4;spacingRight=4;overflow=hidden;rotatable=0;points=[[0,0.5],[1,0.5]];portConstraint=eastwest;whiteSpace=wrap;html=1;" vertex="1" parent="nzlMtpgKNGSJa9ZbUIQB-11">
          <mxGeometry y="92" width="230" height="70" as="geometry" />
        </mxCell>
        <mxCell id="nzlMtpgKNGSJa9ZbUIQB-18" value="Extends" style="endArrow=block;endSize=16;endFill=0;html=1;rounded=0;entryX=0.5;entryY=0;entryDx=0;entryDy=0;exitX=0.5;exitY=0;exitDx=0;exitDy=0;" edge="1" parent="1" source="nzlMtpgKNGSJa9ZbUIQB-11" target="nzlMtpgKNGSJa9ZbUIQB-2">
          <mxGeometry width="160" relative="1" as="geometry">
            <mxPoint x="420" y="210" as="sourcePoint" />
            <mxPoint x="470" y="210" as="targetPoint" />
            <Array as="points">
              <mxPoint x="690" y="50" />
              <mxPoint x="280" y="50" />
            </Array>
          </mxGeometry>
        </mxCell>
      </root>
    </mxGraphModel>
  </diagram>
</mxfile>
